<?xml version="1.0" standalone="no"?>
<!DOCTYPE svg PUBLIC "-//W3C//DTD SVG 20010904//EN"
 "http://www.w3.org/TR/2001/REC-SVG-20010904/DTD/svg10.dtd">
<svg version="1.0" xmlns="http://www.w3.org/2000/svg"
 width="500.000000pt" height="500.000000pt" viewBox="0 0 500.000000 500.000000"
 preserveAspectRatio="xMidYMid meet">
<metadata>
Created by potrace 1.14, written by Peter Selinger 2001-2017
</metadata>
<g transform="translate(0.000000,500.000000) scale(0.100000,-0.100000)"
fill="#000000" stroke="none">
<path d="M1972 4868 c-17 -17 -15 -24 17 -71 109 -159 165 -394 142 -591 -14
-117 -40 -202 -102 -336 -61 -128 -85 -166 -225 -355 -61 -82 -142 -195 -179
-250 -37 -55 -71 -101 -75 -103 -4 -1 -10 14 -13 35 -9 55 -66 146 -97 153
-30 8 -80 -5 -92 -22 -4 -7 -8 -55 -8 -106 0 -151 -45 -255 -245 -567 -170
-266 -243 -422 -278 -595 -13 -64 -13 -65 -44 -62 -44 5 -90 -22 -97 -55 -18
-87 -26 -298 -17 -410 33 -373 164 -651 429 -905 251 -240 660 -438 1047 -505
137 -23 472 -23 645 1 305 42 643 149 883 280 474 258 737 701 687 1155 -26
234 -101 378 -393 754 -221 284 -292 398 -336 541 -25 81 -27 181 -6 253 22
73 89 169 157 221 59 46 70 70 43 92 -32 26 -227 -21 -330 -80 -89 -51 -182
-159 -200 -233 -4 -15 -11 -29 -15 -32 -10 -6 -122 214 -148 291 -52 152 -69
419 -41 650 14 120 10 129 -49 120 -47 -7 -56 -17 -110 -115 -31 -57 -70 -108
-116 -153 -37 -38 -72 -68 -75 -68 -4 0 -3 33 2 73 14 117 2 399 -22 486 -33
124 -75 197 -160 281 -86 85 -191 150 -327 204 -76 30 -104 36 -166 36 -44 0
-79 -5 -86 -12z m-153 -2283 c28 -30 61 -74 71 -97 28 -62 26 -169 -5 -286
-27 -101 -31 -132 -15 -132 6 0 10 17 10 37 0 43 30 110 63 141 l23 22 12 -61
c6 -34 29 -98 50 -143 48 -99 56 -141 42 -211 -14 -66 -71 -135 -132 -160 -50
-20 -147 -22 -206 -5 -55 17 -120 73 -143 124 -46 101 -6 243 131 476 48 81
65 160 51 240 -6 36 -14 75 -17 88 -10 36 9 26 65 -33z m1568 -183 c24 -49 25
-60 20 -145 -3 -51 -15 -121 -27 -157 -22 -70 -26 -120 -10 -120 6 0 10 17 10
38 0 45 29 109 62 140 l25 23 7 -53 c4 -30 27 -97 53 -153 40 -85 47 -108 46
-160 -1 -138 -96 -224 -248 -225 -150 0 -255 94 -255 228 0 97 30 174 161 407
32 57 34 65 34 160 0 55 -4 118 -9 140 l-8 40 56 -55 c31 -30 69 -79 83 -108z
m-1059 -1198 c120 -36 246 -42 400 -19 156 23 202 11 202 -55 0 -32 -40 -67
-122 -105 l-53 -25 50 0 c28 0 65 4 83 9 31 9 33 9 27 -12 -11 -36 -72 -120
-107 -148 -222 -175 -567 -105 -681 139 -16 35 -27 66 -23 69 3 3 17 1 31 -5
13 -6 48 -14 77 -17 l53 -6 -40 22 c-53 28 -125 98 -125 122 0 10 12 30 26 44
22 22 31 25 70 19 25 -3 84 -17 132 -32z"/>
<path d="M1832 2365 c-1 -11 -36 -81 -77 -155 -111 -200 -137 -304 -96 -380
40 -76 178 -108 266 -63 71 37 99 117 71 200 -19 55 -55 109 -56 81 0 -25 -39
-48 -81 -48 -29 0 -43 6 -59 27 -25 33 -24 55 16 192 15 53 24 105 21 128 -2
21 -4 29 -5 18z"/>
<path d="M3327 2271 c-4 -19 -34 -82 -67 -140 -86 -154 -112 -217 -118 -290
-9 -111 47 -172 163 -179 77 -5 127 10 159 49 40 47 50 100 32 162 -15 50 -55
115 -56 90 0 -26 -40 -53 -75 -53 -42 0 -85 36 -85 72 0 12 14 71 31 130 18
65 29 125 27 150 l-3 43 -8 -34z"/>
<path d="M2375 990 c29 -12 134 -12 115 0 -8 5 -42 9 -75 9 -43 0 -54 -3 -40
-9z"/>
</g>
</svg>
